Coordinates
version=1
nRows=7
nColumns=63
inDegrees=yes

Units are S.I. units (second, meters, Newtons, ...)
If the header above contains a line with 'inDegrees', this indicates whether rotational values are in degrees (yes) or radians (no).

endheader
time	pelvis_tilt	pelvis_list	pelvis_rotation	pelvis_tx	pelvis_ty	pelvis_tz	hip_flexion_r	hip_adduction_r	hip_rotation_r	knee_angle_r	knee_angle_r_beta	ankle_angle_r	subtalar_angle_r	mtp_angle_r	hip_flexion_l	hip_adduction_l	hip_rotation_l	knee_angle_l	knee_angle_l_beta	ankle_angle_l	subtalar_angle_l	mtp_angle_l	L5_S1_Flex_Ext	L5_S1_Lat_Bending	L5_S1_axial_rotation	L4_L5_Flex_Ext	L4_L5_Lat_Bending	L4_L5_axial_rotation	L3_L4_Flex_Ext	L3_L4_Lat_Bending	L3_L4_axial_rotation	L2_L3_Flex_Ext	L2_L3_Lat_Bending	L2_L3_axial_rotation	L1_L2_Flex_Ext	L1_L2_Lat_Bending	L1_L2_axial_rotation	L1_T12_Flex_Ext	L1_T12_Lat_Bending	L1_T12_axial_rotation	Abs_r3	Abs_r2	Abs_r1	Abs_t1	Abs_t2	neck_flexion	neck_bending	neck_rotation	arm_flex_r	arm_add_r	arm_rot_r	elbow_flex_r	pro_sup_r	wrist_flex_r	wrist_dev_r	arm_flex_l	arm_add_l	arm_rot_l	elbow_flex_l	pro_sup_l	wrist_flex_l	wrist_dev_l
      2.18333333	      1.63675931	     -2.96481844	     90.15817682	      0.13404188	      0.84629102	      0.48647123	      3.52296676	      0.53103589	     -9.29811999	      9.80463300	      0.17112313	     23.54152645	     10.13463622	      0.00000000	      3.46702080	     -1.28413581	     12.72817586	      8.51807252	      0.14866841	     18.51019682	     -6.60591996	      0.00000000	     -0.14459885	      1.14769230	      1.04803404	     -0.26853453	      1.52643076	      1.11353617	     -0.23756145	      2.79049905	      1.11353617	     -0.16526203	      2.79049905	      0.91702979	     -0.13427449	      2.34037414	      0.85152766	     -0.08262378	      1.77777537	      0.78602553	     -1.03285514	     12.98292482	      5.82885094	      0.00000000	      0.00000000	     19.12986520	      1.46350621	     37.91048289	      6.14804498	    -18.95112117	    130.67575209	      4.48483154	      2.58679734	     -4.55871380	    -11.44928269	     58.12687645	    -38.01449573	    -22.85686177	    149.21579764	     74.00007096	      5.38694204	     23.35969014
      2.20000000	      1.65676387	     -2.92797863	     90.16202480	      0.13391346	      0.84625593	      0.48584682	      3.35683565	      0.54254392	     -9.47055968	      9.59352541	      0.16743861	     23.69743172	     10.47718907	      0.00000000	      3.52374915	     -1.29625429	     12.02004435	      8.91551544	      0.15560510	     18.55414224	     -5.77548395	      0.00000000	     -0.14666901	      1.15097705	      1.01928417	     -0.27237902	      1.53079948	      1.08298943	     -0.24096252	      2.79848560	      1.08298943	     -0.16762801	      2.79848560	      0.89187365	     -0.13619684	      2.34707240	      0.82816839	     -0.08380667	      1.78286345	      0.76446313	     -1.04764207	     13.02008260	      5.66895279	      0.00000000	      0.00000000	     18.56468146	      1.90968314	     37.91104168	      6.07407760	    -18.97067420	    131.79263640	      4.25508148	      2.64881871	     -4.93741321	    -11.30357572	     58.22751971	    -37.95102138	    -23.56815451	    149.22443104	     73.99451476	      6.65098496	     24.38315160
      2.21666667	      1.67299496	     -2.92626480	     90.12838040	      0.13380884	      0.84597973	      0.48510563	      3.31284652	      0.54799042	     -9.47047087	      9.57112758	      0.16704769	     23.78616179	     10.46492144	      0.00000000	      3.43459863	     -1.28294267	     12.00734565	      9.00087952	      0.15709498	     18.46936067	     -5.74671713	      0.00000000	     -0.14470263	      1.15114994	      1.01683133	     -0.26872725	      1.53102942	      1.08038329	     -0.23773195	      2.79890596	      1.08038329	     -0.16538063	      2.79890596	      0.88972741	     -0.13437086	      2.34742495	      0.82617545	     -0.08268308	      1.78313125	      0.76262350	     -1.03359641	     13.02203832	      5.65531080	      0.00000000	      0.00000000	     18.46483612	      1.95176905	     37.86565802	      5.91062860	    -19.06751106	    131.80583965	      4.29946962	      2.65750111	     -4.94020795	    -11.27365246	     58.44350884	    -37.94719326	    -23.63940861	    149.18095271	     73.96548152	      6.69949358	     24.29296625
      2.23333333	      1.71777119	     -2.84334214	     90.22655135	      0.13365327	      0.84594313	      0.48449366	      2.93195407	      0.65731304	     -9.24067897	      9.02037124	      0.15743518	     23.86544047	     10.30174623	      0.00000000	      3.66643298	     -1.45210925	      9.57516793	      9.81962119	      0.17138472	     18.99510957	     -2.45244254	      0.00000000	     -0.14296069	      1.16239442	      0.93536467	     -0.26549230	      1.54598458	      0.99382497	     -0.23487012	      2.82624580	      0.99382497	     -0.16338977	      2.82624580	      0.81844409	     -0.13275330	      2.37035471	      0.75998380	     -0.08168774	      1.80054896	      0.70152350	     -1.02115392	     13.14923820	      5.20221770	      0.00000000	      0.00000000	     16.94655038	      3.14210911	     39.03697084	      5.93210967	    -19.19800382	    131.33146606	      4.58931083	      2.76172212	     -5.10321532	    -10.89184203	     58.77982949	    -37.59177077	    -25.53785516	    149.25590210	     74.09954639	     11.36973112	     26.94835139
      2.25000000	      1.72081264	     -2.82282135	     90.20095248	      0.13358347	      0.84557717	      0.48395834	      2.87628657	      0.65368350	     -9.23994859	      9.00028367	      0.15708458	     23.93582463	     10.29257734	      0.00000000	      3.57799067	     -1.43708361	      9.56234066	      9.88700334	      0.17256076	     18.96711059	     -2.44017834	      0.00000000	     -0.13941544	      1.16077229	      0.93022145	     -0.25890841	      1.54382715	      0.98836029	     -0.22904562	      2.82230176	      0.98836029	     -0.15933791	      2.82230176	      0.81394377	     -0.12946118	      2.36704686	      0.75580493	     -0.07966198	      1.79803628	      0.69766609	     -0.99583054	     13.13088835	      5.17361265	      0.00000000	      0.00000000	     16.86610606	      3.15393465	     39.03253812	      5.73097585	    -19.28312940	    131.32155292	      4.67086464	      2.74821631	     -5.08588220	    -10.85145055	     58.98765792	    -37.58956686	    -25.56316113	    149.24602837	     74.05920237	     11.42445243	     26.84177924
      2.26666667	      1.69889902	     -2.71389813	     90.51422305	      0.13315621	      0.84536418	      0.48351324	      2.43634549	      0.68746784	     -9.16629366	      8.42007815	      0.14695809	     23.97016383	     10.04482044	      0.00000000	      3.67251634	     -1.43719655	      8.92531173	     10.36701608	      0.18093856	     19.34362124	     -1.26362691	      0.00000000	     -0.13919234	      1.16281097	      0.83621085	     -0.25849410	      1.54653860	      0.88847403	     -0.22867910	      2.82725860	      0.88847403	     -0.15908293	      2.82725860	      0.73168449	     -0.12925401	      2.37120414	      0.67942132	     -0.07953451	      1.80119420	      0.62715814	     -0.99423699	     13.15395030	      4.65075388	      0.00000000	      0.00000000	     15.85735797	      3.79877102	     40.15700510	      5.70849480	    -19.51189830	    128.23570831	      5.42573044	      2.75051792	     -4.55332440	    -10.59373928	     59.12995690	    -37.39166079	    -26.61445796	    149.32649639	     75.13866879	     13.73572369	     27.65745773
      2.28333333	      1.69222606	     -2.68632339	     90.54112822	      0.13323396	      0.84502147	      0.48350165	      2.39768700	      0.68327610	     -9.16189435	      8.40196391	      0.14664193	     24.01013076	     10.04050810	      0.00000000	      3.64733540	     -1.43852439	      8.92414075	     10.38093510	      0.18118150	     19.41048508	     -1.27332590	      0.00000000	     -0.13963244	      1.15884676	      0.84009017	     -0.25931140	      1.54126619	      0.89259581	     -0.22940213	      2.81762001	      0.89259581	     -0.15958591	      2.81762001	      0.73507890	     -0.12966268	      2.36312031	      0.68257326	     -0.07978597	      1.79505363	      0.63006763	     -0.99738052	     13.10910631	      4.67232950	      0.00000000	      0.00000000	     15.80890952	      3.77194482	     40.14433584	      5.58416709	    -19.53610689	    128.22304390	      5.49334426	      2.74204066	     -4.53701525	    -10.56429215	     59.27434733	    -37.38597486	    -26.59654152	    149.33166068	     75.08352046	     13.79662171	     27.53569584
